<?xml version="1.0" standalone="no"?>
<!DOCTYPE svg PUBLIC "-//W3C//DTD SVG 20010904//EN"
 "http://www.w3.org/TR/2001/REC-SVG-20010904/DTD/svg10.dtd">
<svg version="1.0" xmlns="http://www.w3.org/2000/svg"
 width="606.000000pt" height="606.000000pt" viewBox="0 0 606.000000 606.000000"
 preserveAspectRatio="xMidYMid meet">
<metadata>
Created by potrace 1.14, written by Peter Selinger 2001-2017
</metadata>
<g transform="translate(0.000000,606.000000) scale(0.100000,-0.100000)"
fill="#000000" stroke="none">
<path d="M2935 5384 c-441 -30 -780 -137 -1109 -351 l-111 -72 -26 25 c-45 43
-67 27 -48 -36 l12 -40 -96 -97 c-100 -103 -145 -155 -187 -216 -14 -20 -28
-37 -31 -37 -4 0 -44 21 -89 46 -81 44 -110 50 -110 20 0 -24 48 -146 77 -195
25 -43 25 -44 8 -80 -33 -70 -73 -187 -95 -282 l-22 -95 -76 -61 c-284 -224
-502 -514 -606 -803 -58 -160 -77 -264 -83 -445 -4 -145 -2 -187 16 -286 132
-730 788 -1322 1756 -1584 55 -15 120 -38 145 -50 140 -70 394 -129 638 -147
334 -24 670 27 912 139 41 19 122 48 180 64 218 61 448 151 630 246 596 311
982 767 1091 1288 26 122 35 348 19 456 -43 294 -157 551 -355 799 -71 89
-231 244 -344 334 l-94 74 -22 89 c-133 521 -534 942 -1100 1155 -257 97 -636
158 -880 142z"/>
</g>
</svg>
